/* XPM */
static char *result[] = {
/* columns rows colors chars-per-pixel */
"50 50 14 1",
"  c None",
"a c #141b1b",
"b c #8f4d57",
"c c #52333f",
"d c #bd6a62",
"e c #ffae70",
"f c #3d2936",
"g c #2c354d",
"h c #a3a7c2",
"i c #404973",
"j c #f5ffe8",
"k c #2f5753",
"l c #3b7d4f",
"m c #686f99",
"                                                  ",
"                                                  ",
"                                                  ",
"                                                  ",
"                                                  ",
"                                                  ",
"            aaaaaaaaaaaaaaaaaaaaaaaaa             ",
"            aaaaaaaaaaaaaaaaaaaaaaaaa             ",
"            aaaaaaaaaaaaaaaaaaaaaaaaa             ",
"         aaabbbbbbbbbbbbbbbbcccccccccaaaa         ",
"         aaabbbbbbbbbbbbbbbbcccccccccaaaa         ",
"         aaabbbbbbbbbbbbbbbbcccccccccaaaa         ",
"      aaabbbbbbbbbbbbbcccccccccccccccccccaaa      ",
"      aaabbbbbbbbbbbbbcccccccccccccccccccaaa      ",
"      aaabbbbbbbbbbbbbcccccccccccccccccccaaa      ",
"      aaabbbbbbbbbbbbbcccccccccccccccccccaaa      ",
"      aaaccccccccccccccccccccccccccccccccaaa      ",
"      aaaccccccccccccccccccccccccccccccccaaa      ",
"      aaaccccccccccccccccccccccccccccccccaaa      ",
"      aaadddddddddddddcccccccccccccccccccaaa      ",
"      aaadddddddddddddcccccccccccccccccccaaa      ",
"      aaadddddddddddddcccccccccccccccccccaaa      ",
"      aaaeeeffffffffffdddccccccccccccccccaaa      ",
"      aaaeeeffffffffffdddccccccccccccccccaaa      ",
"      aaaeeeffffffffffdddccccccccccccccccaaa      ",
"      aaaeeeggggggghhheeeccceeeeeecccccccaaa      ",
"      aaaeeeggggggghhheeeccceeeeeecccccccaaa      ",
"      aaaeeeggggggghhheeeccceeeeeecccccccaaa      ",
"      aaaeeeiiiiiiijjjeeecccdddeeecccccccaaa      ",
"      aaaeeeiiiiiiijjjeeecccdddeeecccccccaaa      ",
"      aaaeeeiiiiiiijjjeeecccdddeeecccccccaaa      ",
"      aaadddeeeeeeeeeeeeeeeeeeeccccccaaaa         ",
"      aaadddeeeeeeeeeeeeeeeeeeeccccccaaaa         ",
"      aaadddeeeeeeeeeeeeeeeeeeeccccccaaaa         ",
"         aaaeeeeeeeeeeeeedddccccccaaa             ",
"         aaaeeeeeeeeeeeeedddccccccaaa             ",
"         aaaeeeeeeeeeeeeedddccccccaaa             ",
"            aaaadddddddddaaakkkkkkaaa             ",
"            aaaadddddddddaaakkkkkkaaa             ",
"            aaaadddddddddaaakkkkkkaaa             ",
"            aaaadddddddddaaakkkkkkaaa             ",
"            aaaallllllaaaeeeeeelllaaa             ",
"            aaaallllllaaaeeeeeelllaaa             ",
"            aaaallllllaaaeeeeeelllaaa             ",
"            aaaammmmmmaaaeeeeeeaaa                ",
"            aaaammmmmmaaaeeeeeeaaa                ",
"            aaaammmmmmaaaeeeeeeaaa                ",
"                aaaiiiiiiaaaaaaaaa                ",
"                aaaiiiiiiaaaaaaaaa                ",
"                aaaiiiiiiaaaaaaaaa                "
};