/* XPM */
static char *result[] = {
/* columns rows colors chars-per-pixel */
"50 50 14 1",
"  c None",
"a c #141b1b",
"b c #52333f",
"c c #8f4d57",
"d c #bd6a62",
"e c #3d2936",
"f c #ffae70",
"g c #a3a7c2",
"h c #2c354d",
"i c #f5ffe8",
"j c #404973",
"k c #2f5753",
"l c #3b7d4f",
"m c #686f99",
"                                                  ",
"                                                  ",
"                                                  ",
"                                                  ",
"                                                  ",
"                                                  ",
"            aaaaaaaaaaaaaaaaaaaaaaaaa             ",
"            aaaaaaaaaaaaaaaaaaaaaaaaa             ",
"            aaaaaaaaaaaaaaaaaaaaaaaaa             ",
"         aaabbbbbbbbbbcccccccccccccccaaaa         ",
"         aaabbbbbbbbbbcccccccccccccccaaaa         ",
"         aaabbbbbbbbbbcccccccccccccccaaaa         ",
"      aaabbbbbbbbbbbbbbbbbbbcccccccccccccaaa      ",
"      aaabbbbbbbbbbbbbbbbbbbcccccccccccccaaa      ",
"      aaabbbbbbbbbbbbbbbbbbbcccccccccccccaaa      ",
"      aaabbbbbbbbbbbbbbbbbbbcccccccccccccaaa      ",
"      aaabbbbbbbbbbbbbbbbbbbbbbbbbbbbbbbbaaa      ",
"      aaabbbbbbbbbbbbbbbbbbbbbbbbbbbbbbbbaaa      ",
"      aaabbbbbbbbbbbbbbbbbbbbbbbbbbbbbbbbaaa      ",
"      aaabbbbbbbbbbbbbbbbbbbdddddddddddddaaa      ",
"      aaabbbbbbbbbbbbbbbbbbbdddddddddddddaaa      ",
"      aaabbbbbbbbbbbbbbbbbbbdddddddddddddaaa      ",
"      aaabbbbbbbbbbbbbbbbdddeeeeeeeeeffffaaa      ",
"      aaabbbbbbbbbbbbbbbbdddeeeeeeeeeffffaaa      ",
"      aaabbbbbbbbbbbbbbbbdddeeeeeeeeeffffaaa      ",
"      aaabbbbbbbffffffbbbfffggghhhhhhffffaaa      ",
"      aaabbbbbbbffffffbbbfffggghhhhhhffffaaa      ",
"      aaabbbbbbbffffffbbbfffggghhhhhhffffaaa      ",
"      aaabbbbbbbfffdddbbbfffiiijjjjjjffffaaa      ",
"      aaabbbbbbbfffdddbbbfffiiijjjjjjffffaaa      ",
"      aaabbbbbbbfffdddbbbfffiiijjjjjjffffaaa      ",
"         aaabbbbbbbffffffffffffffffffddddaaa      ",
"         aaabbbbbbbffffffffffffffffffddddaaa      ",
"         aaabbbbbbbffffffffffffffffffddddaaa      ",
"            aaaabbbbbbdddffffffffffffaaaa         ",
"            aaaabbbbbbdddffffffffffffaaaa         ",
"            aaaabbbbbbdddffffffffffffaaaa         ",
"            aaaakkkkkkaaadddddddddaaa             ",
"            aaaakkkkkkaaadddddddddaaa             ",
"            aaaakkkkkkaaadddddddddaaa             ",
"            aaaakkkkkkaaadddddddddaaa             ",
"            aaaalllffffffaaallllllaaa             ",
"            aaaalllffffffaaallllllaaa             ",
"            aaaalllffffffaaallllllaaa             ",
"                aaaffffffaaammmmmmaaa             ",
"                aaaffffffaaammmmmmaaa             ",
"                aaaffffffaaammmmmmaaa             ",
"                aaaaaaaaajjjjjjaaa                ",
"                aaaaaaaaajjjjjjaaa                ",
"                aaaaaaaaajjjjjjaaa                "
};