/* XPM */
static char *result[] = {
/* columns rows colors chars-per-pixel */
"50 50 9 1",
"  c None",
"a c #141b1b",
"b c #52333f",
"c c #8f4d57",
"d c #ffae70",
"e c #3b7d4f",
"f c #2f5753",
"g c #686f99",
"h c #404973",
"                                                  ",
"                                                  ",
"                                                  ",
"                                                  ",
"                                                  ",
"                                                  ",
"            aaaaaaaaaaaaaaaaaaaaaaaaa             ",
"            aaaaaaaaaaaaaaaaaaaaaaaaa             ",
"            aaaaaaaaaaaaaaaaaaaaaaaaa             ",
"         aaabbbbccccccccccccccccccbbbaaaa         ",
"         aaabbbbccccccccccccccccccbbbaaaa         ",
"         aaabbbbccccccccccccccccccbbbaaaa         ",
"      aaabbbbbbbbbbccccccccccccbbbbbbbbbbaaa      ",
"      aaabbbbbbbbbbccccccccccccbbbbbbbbbbaaa      ",
"      aaabbbbbbbbbbccccccccccccbbbbbbbbbbaaa      ",
"      aaabbbbbbbbbbccccccccccccbbbbbbbbbbaaa      ",
"      aaabbbbbbbbbbbbbbbbbbbbbbbbbbbbbbbbaaa      ",
"      aaabbbbbbbbbbbbbbbbbbbbbbbbbbbbbbbbaaa      ",
"      aaabbbbbbbbbbbbbbbbbbbbbbbbbbbbbbbbaaa      ",
"      aaabbbbbbbbbbbbbbbbbbbbbbbbbbbbbbbbaaa      ",
"      aaabbbbbbbbbbbbbbbbbbbbbbbbbbbbbbbbaaa      ",
"      aaabbbbbbbbbbbbbbbbbbbbbbbbbbbbbbbbaaa      ",
"      aaabbbbbbbbbbbbbbbbbbbbbbbbbbbbbbbbaaa      ",
"      aaabbbbbbbbbbbbbbbbbbbbbbbbbbbbbbbbaaa      ",
"      aaabbbbbbbbbbbbbbbbbbbbbbbbbbbbbbbbaaa      ",
"   aaadddbbbbbbbbbbbbbbbbbbbbbbbbbbbbbbbbdddaaa   ",
"   aaadddbbbbbbbbbbbbbbbbbbbbbbbbbbbbbbbbdddaaa   ",
"   aaadddbbbbbbbbbbbbbbbbbbbbbbbbbbbbbbbbdddaaa   ",
"   aaadddbbbbbbbbbbbbbbbbbbbbbbbbbbbbbbbbdddaaa   ",
"   aaadddbbbbbbbbbbbbbbbbbbbbbbbbbbbbbbbbdddaaa   ",
"   aaadddbbbbbbbbbbbbbbbbbbbbbbbbbbbbbbbbdddaaa   ",
"      aaabbbbbbbbbbbbbbbbbbbbbbbbbbbbbbbbaaa      ",
"      aaabbbbbbbbbbbbbbbbbbbbbbbbbbbbbbbbaaa      ",
"      aaabbbbbbbbbbbbbbbbbbbbbbbbbbbbbbbbaaa      ",
"         aaaeeeebbbbbbbbbbbbbbbbbbeeeaaaa         ",
"         aaaeeeebbbbbbbbbbbbbbbbbbeeeaaaa         ",
"         aaaeeeebbbbbbbbbbbbbbbbbbeeeaaaa         ",
"      aaafffeeeeeeeeeeeeeeeeeeeeeeeeeffffaaa      ",
"      aaafffeeeeeeeeeeeeeeeeeeeeeeeeeffffaaa      ",
"      aaafffeeeeeeeeeeeeeeeeeeeeeeeeeffffaaa      ",
"      aaafffeeeeeeeeeeeeeeeeeeeeeeeeeffffaaa      ",
"   aaaddddddeeeeeeeeeeeeeeeeeeeeeeeeedddddddaaa   ",
"   aaaddddddeeeeeeeeeeeeeeeeeeeeeeeeedddddddaaa   ",
"   aaaddddddeeeeeeeeeeeeeeeeeeeeeeeeedddddddaaa   ",
"   aaaddddddggggggggggaaaaaagggggggggdddddddaaa   ",
"   aaaddddddggggggggggaaaaaagggggggggdddddddaaa   ",
"   aaaddddddggggggggggaaaaaagggggggggdddddddaaa   ",
"      aaaaaahhhhhhhaaaaaaaaaaaahhhhhhaaaaaaa      ",
"      aaaaaahhhhhhhaaaaaaaaaaaahhhhhhaaaaaaa      ",
"      aaaaaahhhhhhhaaaaaaaaaaaahhhhhhaaaaaaa      "
};