/* XPM */
static char *result[] = {
/* columns rows colors chars-per-pixel */
"50 41 10 1",
"  c None",
"a c #3f3851",
"b c #91ea9c",
"c c #48c38a",
"d c #37ab9c",
"e c #298a91",
"f c #f0f7f4",
"g c #8ca9b5",
"h c #b2d3cf",
"i c #25667e",
"                                                  ",
"                                                  ",
"                                                  ",
"                                                  ",
"                                                  ",
"                                                  ",
"                                                  ",
"                                                  ",
"                                                  ",
"                                                  ",
"                                                  ",
"                                                  ",
"                                                  ",
"                                                  ",
"                                                  ",
"                                                  ",
"                                                  ",
"                                                  ",
"                  aaaa               aaaa         ",
"                aabbbcaa           aabbbcaa       ",
"                aacddaaaaaaaaaaaaaaaaadddaa       ",
"                aacddaaaaaaaaaaaaaaaaadddaa       ",
"                aaaaadcccbbbbccbcccccdaaaaa       ",
"                  addccccccccccccccccceea         ",
"                  addccccccccccccccccceea         ",
"                  acccccaadddaaaddcaaceea         ",
"                  aaacccdaaaaaadddaffaeea         ",
"                  aaacccdaaaaaadddaffaeea         ",
"                  affaddabbbcbbaaafffaeea         ",
"                  afffaaaacccaaaggfhhaeea         ",
"                  afffaaaacccaaaggfhhaeea         ",
"                aaahhfggadcccddaaagaacccdaa       ",
"               accaaagaaaaaaaaaaaaaddcccccca      ",
"               accaaagaaaaaaaaaaaaaddcccccca      ",
"               accaaaaiieeeeeeeeeedcccddddda      ",
"                aaaeeeeedbccbbbbcccccdaaaaa       ",
"                aaaeeeeedbccbbbbcccccdaaaaa       ",
"                   aacddaaaaaaaaaaaeeeaa          ",
"                   aadaa           aaiaa          ",
"                   aadaa           aaiaa          ",
"                     aaa             aaa          "
};