/* XPM */
static char *result[] = {
/* columns rows colors chars-per-pixel */
"50 41 10 1",
"  c None",
"a c #f0f7f4",
"b c #3f3851",
"c c #91ea9c",
"d c #48c38a",
"e c #37ab9c",
"f c #298a91",
"g c #b2d3cf",
"h c #8ca9b5",
"i c #25667e",
"                                                  ",
"                                                  ",
"                                                  ",
"       aaaaa                                      ",
"      aaaaaaa                                     ",
"      aaaaaaa                                     ",
"    aaaaaaaaa                                     ",
"    aaaaaaaaa                                     ",
"    aaaaaaaaa                                     ",
"   aaaaaaaaa       bbbbb           bbbbb          ",
"   aaaaaaa        bcccddbbbbbbbbbbbcccddb         ",
"   aaaaaaa        bcccddbbbbbbbbbbbcccddb         ",
" aaaaaaaaa     b   bbbeeddcccddcdddeebbbb         ",
" aaaaaaaa    bbabb bbebbddbbdddbdddddfbb          ",
" aaaaaaaa    bbabb bbebbddbbdddbdddddfbb          ",
" aaaaaaaa    bbaaabbbbbbbbbbebbabbdddfbb          ",
" aaaaaaaa    bbgaahbbcccdcbbbaaabbdddfbb          ",
" aaaaaaaa    bbgaahbbcccdcbbbaaabbdddfbb          ",
" aaaaaaaa      bhhbbbbdddbbbhaagbbdddfbb          ",
" aaaaaaaa       bbbbbedddebbbhhbeedddfbb          ",
"   aaaaaa          bbbbbbbbbbbbeddddddddb         ",
"   aaaaaa          bbbbbbbbbbbbeddddddddb         ",
"   aaaaaaa        bbbifffffffeeddddddedddbb       ",
"    aaaaaa      bbdbbfffeddddddddddddbeeebb       ",
"    aaaaaa      bbdbbfffeddddddddddddbeeebb       ",
"    aaaaaa      bbdbbfeedddddddddddddfbbb         ",
"      aaaaaa      bbbfdddddddddddddddfbb          ",
"      aaaaaa      bbbfdddddddddddddddfbb          ",
"       aaaaa       bbfddddccdcccdddeeibb          ",
"         aaaa        bddebbbbbbbbbfffb            ",
"         aaaa        bddebbbbbbbbbfffb            ",
"            aaa      beeb         biib            ",
"                      bbb          bbb            ",
"                      bbb          bbb            ",
"                                                  ",
"                                                  ",
"                                                  ",
"                                                  ",
"                                                  ",
"                                                  ",
"                                                  "
};