/* XPM */
static char *result[] = {
/* columns rows colors chars-per-pixel */
"50 41 10 1",
"  c None",
"a c #f0f7f4",
"b c #3f3851",
"c c #91ea9c",
"d c #48c38a",
"e c #37ab9c",
"f c #298a91",
"g c #b2d3cf",
"h c #8ca9b5",
"i c #25667e",
"               aaa                                ",
"            aaaaaaa                               ",
"            aaaaaaa                               ",
"          aaaaaaaaa                               ",
"         aaaaaaa                                  ",
"         aaaaaaa                                  ",
"         aaaa                                     ",
"       aaaaa                                      ",
"       aaaaa                                      ",
"       aaa                                        ",
"       aaa         bbbbb           bbbbb          ",
"       aaa         bbbbb           bbbbb          ",
"       aa         bcccddb         bcccddb         ",
"       aa         bddebbbbbbbbbbbbbbbeeeb         ",
"       aa         bddebbbbbbbbbbbbbbbeeeb         ",
"                   bbbeeddcccddcdddeebbbb         ",
"                bb bbedddddddddddddddfbb          ",
"                bb bbedddddddddddddddfbb          ",
"               baabbbdddbeddbeedbbdddfbb          ",
"               baaabbbbbbbbbbeebaabddfbb          ",
"               bggahhbcccdccbbbaaabddfeeb         ",
"               bggahhbcccdccbbbaaabddfeeb         ",
"                bbhbbbbbddbbbhhaggbddddddbb       ",
"                bbbbbbeeddeebbbhbbedddddebb       ",
"                bbbbbbeeddeebbbhbbedddddebb       ",
"                bbdbbbbbbbbbbbbbeedddeeeb         ",
"                  bbbifffffffffedddddbbb          ",
"                  bbbifffffffffedddddbbb          ",
"                   bbfffeddddddddddddfbb          ",
"                   bbeddddccdcccdddeeibb          ",
"                   bbeddddccdcccdddeeibb          ",
"                   bbdeebbbbbbbbbbfffb            ",
"                   bbebb        bbbbb             ",
"                   bbebb        bbbbb             ",
"                   bbb                            ",
"                                                  ",
"                                                  ",
"                                                  ",
"                                                  ",
"                                                  ",
"                                                  "
};