/* XPM */
static char *result[] = {
/* columns rows colors chars-per-pixel */
"50 41 10 1",
"  c None",
"a c #3f3851",
"b c #91ea9c",
"c c #48c38a",
"d c #37ab9c",
"e c #298a91",
"f c #f0f7f4",
"g c #b2d3cf",
"h c #8ca9b5",
"i c #25667e",
"                                                  ",
"                                                  ",
"                                                  ",
"                                                  ",
"                                                  ",
"                                                  ",
"                                                  ",
"                                                  ",
"                                                  ",
"                                                  ",
"                                                  ",
"                                                  ",
"                                                  ",
"                                                  ",
"                                                  ",
"                                                  ",
"                                                  ",
"                                                  ",
"                                                  ",
"                  aaaa               aaaa         ",
"                aabbbcaaaaaaaaaaaaaaabbbcaa       ",
"                aabbbcaaaaaaaaaaaaaaabbbcaa       ",
"                aaaaadccccbbbbbcbbcccdaaaaa       ",
"                  addccccccccccccccccceea         ",
"                  addccccccccccccccccceea         ",
"                aaacccccccccccccccaccceea         ",
"               affadddaaadccaaadaafaaceea         ",
"               affadddaaadccaaadaafaaceea         ",
"               afffaaaaaaaaaaaaafffaaceea         ",
"               aggfhhabbbbccbaahffgaacddaaa       ",
"               aggfhhabbbbccbaahffgaacddaaa       ",
"                aahaaaaaccccaaaahhacccccccca      ",
"               accaaaaddccccdaaaaadccccccdda      ",
"               accaaaaddccccdaaaaadccccccdda      ",
"               accaiieaaaaaaaeeeddccccdddaa       ",
"                aaaeeeeeeeeeeeedbbcccdaaa         ",
"                aaaeeeeeeeeeeeedbbcccdaaa         ",
"                   aacddaaaaaaaaaaaeeeaa          ",
"                   aadaa           aaiaa          ",
"                   aadaa           aaiaa          ",
"                   aaa             aaa            "
};