/* XPM */
static char *result[] = {
/* columns rows colors chars-per-pixel */
"50 50 3 1",
"  c #ae7764",
"a c #833f4c",
"b c #985252",
"                                                aa",
"                                                aa",
"                                                aa",
"                                                aa",
"                                                aa",
"bb                                             baa",
"aaaaaaaaaaaaaaaaaaaaaaaaaaaaaaabb bbbb    bbaaaaaa",
"aaaaaaaaaaaaaaaaaaaaaaaaaaaaaaabb bbbb    bbaaaaaa",
"                      baabb                       ",
"                       aa                         ",
"                       aa                         ",
"                       aa                         ",
"                       aa                         ",
"                       aa      bb bbaaaaabbb      ",
"                       aa                         ",
"                       aa                         ",
"                       aa                         ",
"                      baabb                       ",
"                      baabb                       ",
"aaaaabbb     b  bbbaaaaaaaaaaaaaaaaaaaaaaaaaaaaaaa",
"bb                                             baa",
"bb                                             baa",
"                                                aa",
"                                                aa",
"                                                aa",
"                                                aa",
"                                                aa",
"                                                aa",
"        baaaab  b                               aa",
"        baaaab  b                               aa",
"bb                                             baa",
"aaaaaaaaaaaaaaaaaaaaaaaaaaaabbabbbbbbbaaaaaaaaaaaa",
"aaaaaaaaaaaaaaaaaaaaaaaaaaaabbabbbbbbbaaaaaaaaaaaa",
"                      baabb                       ",
"                       aa                         ",
"                       aa                         ",
"                       aa                         ",
"                       aa                         ",
"                       aa                         ",
"                       aa                         ",
"                       aa                         ",
"                       aa                         ",
"                      baabb                       ",
"                      baabb                       ",
"aaaaabbb      bbbbbabbaaaaaaaaaaaaaaaaaaaaaaaaaaaa",
"bb                                             baa",
"bb                                             baa",
"                                                aa",
"                                                aa",
"                                                aa"
};