/* XPM */
static char *result[] = {
/* columns rows colors chars-per-pixel */
"50 50 6 1",
"  c #6e5967",
"a c #ad707b",
"b c #c39490",
"c c #d1b1a5",
"d c #b77f83",
"e c #dccabe",
"                                                  ",
"                                                  ",
"aabbbbbbccccccccbbbcbbbbbbbbbbbbbbbbbbbbbbbbbbba  ",
"bbbbbbbbbbbbbbbbbbbbbbbbbbbbbbbbbbbbbbbbbbbbbbbb  ",
"bbbbbbbbbbbbbbbbbbbbbbbbbbbbbbbbbbbbbbbbbbbbbbbb  ",
"bbbbbbbbbbbbbbbbbbbbbbbbbbbbbbbaabaaaaaaaabbb     ",
"bbbbbbbbbbbbbbbbbbbbbbbbbbbbbbbbbcbbcccccbbbbbbd  ",
"bbbbbbbbbbbbbbbbbbbbbbbbbbbbbbbbbcbbcccccbbbbbbd  ",
"bbbbbbbbbbbbbbbbbbbbbbbbbbbbbbbbbbbbbbbbbbbbbbbb  ",
"bbbbbbbbbbbbbbbbbbbbbbbbbbbbbbbbbbbbbbbbbbbbbbbb  ",
"bbbbbbbbbbbbbbbbbbbbbbbbbbbbbbbbbbbbbbbbbbbbbbbb  ",
"aabbbbbbbbbbbbbbbbbbbbbbbbbbbbbbbbbbbbbbbbbbbbba  ",
"aabbbbbbbbbbbbbbbbbbbbbbbbbbbbbbbbbbbbbbbbbbbbba  ",
"                                                  ",
"cccccbbbbbbbbbbbbbbbbba  aabbbbccbccccccccbbbbbbbb",
"cccccbbbbbbbbbbbbbbbbba  aabbbbccbccccccccbbbbbbbb",
"bbbbbbbbbbbbbbbbbbbbbbb  bbbbbbbbbbbbbbbbbbbbbbbbb",
"bbbbbbbbbbbaaabbabbb     bbbbbbbbbbbbbbbbbbbbbbbbb",
"bbbbbbbbbbbaaabbabbb     bbbbbbbbbbbbbbbbbbbbbbbbb",
"bbbbbbbbbccbbcccbbbbbbd  bbbbbbbbbbbbbbbbbbbbbbbbb",
"bbbbbbbbbbbbbbbbbbbbbbb  bbbbbbbbbbbbbbbbbbbbbbbbb",
"bbbbbbbbbbbbbbbbbbbbbbb  bbbbbbbbbbbbbbbbbbbbbbbbb",
"bbbbbbbbbbbbbbbbbbbbbbb  bbbbbbbbbbbbbbbbbbbbbbbbb",
"bbbbbbbbbbbbbbbbbbbbbba  aabbbbbbbbbbbbbbbbbbbbbbb",
"bbbbbbbbbbbbbbbbbbbbbba  aabbbbbbbbbbbbbbbbbbbbbbb",
"                                                  ",
"                                                  ",
"aabbbbccbcccceeeeccbcccbbbbbbbbbbbbbbbbbbbbbbbba  ",
"bbbbbbbbbbbbbbbbbbbbbbbbbbbbbbbbbbbbbbbbbbbbbbbb  ",
"bbbbbbbbbbbbbbbbbbbbbbbbbbbbbbbbbbbbbbbbbbbbbbbb  ",
"bbbbbbbbbbbbbbbbbbbbbbbbbbbbbbbbbbbbbbbbbbbbbbbb  ",
"bbbbbbbbbbbbbbbbbbbbbbbbbbbbbbbbbbbbbbbbbbbbbbbd  ",
"bbbbbbbbbbbbbbbbbbbbbbbbbbbbbbbbbbbbbbbbbbbbbbbd  ",
"bbbbbbbbbbbbbbbbbbbbbbbbbbbbbbbbbbaaaabaab        ",
"bbbbbbbbbbbbbbbbbbbbbbbbbbbbbbbbbbbbbbcbbcccbbbb  ",
"bbbbbbbbbbbbbbbbbbbbbbbbbbbbbbbbbbbbbbcbbcccbbbb  ",
"aabbbbbbbbbbbbbbbbbbbbbbbbbbbbbbbbbbbbbbbbbbbbba  ",
"aabbbbbbbbbbbbbbbbbbbbbbbbbbbbbbbbbbbbbbbbbbbbba  ",
"                                                  ",
"bbbbbbbbbbbbbbbbbbbbbba  aabbbbccbccccceeeeecccbbb",
"bbbbbbbbbbbbbbbbbbbbbba  aabbbbccbccccceeeeecccbbb",
"bbbbbbbbbbbbbbbbbbbbbbb  bbbbbbbbbbbbbbbbbbbbbbbbb",
"bbbbbbaaaaabbbaabbb      bbbbbbbbbbbbbbbbbbbbbbbbb",
"bbbbbbaaaaabbbaabbb      bbbbbbbbbbbbbbbbbbbbbbbbb",
"bbbbbbbbcbbbbbcccbbcbbd  bbbbbbbbbbbbbbbbbbbbbbbbb",
"bbbbbbbbbbbbbbbbbbbbbbb  bbbbbbbbbbbbbbbbbbbbbbbbb",
"bbbbbbbbbbbbbbbbbbbbbbb  bbbbbbbbbbbbbbbbbbbbbbbbb",
"bbbbbbbbbbbbbbbbbbbbbbb  bbbbbbbbbbbbbbbbbbbbbbbbb",
"bbbbbbbbbbbbbbbbbbbbbba  aabbbbbbbbbbbbbbbbbbbbbbb",
"bbbbbbbbbbbbbbbbbbbbbba  aabbbbbbbbbbbbbbbbbbbbbbb"
};