/* XPM */
static char *_7e03a147cd142c69257fc0f57c2a942KAjhdwJKd19QeuAD[] = {
/* columns rows colors chars-per-pixel */
"50 50 13 1 ",
"  c #3F3851",
". c #584B57",
"X c #89365C",
"o c #9E3B57",
"O c #AE444E",
"+ c #BF5753",
"@ c #D25654",
"# c #CD7363",
"$ c #E27F6D",
"% c #EDA27F",
"& c #FBCA97",
"* c #FFEAB7",
"= c #FFFAD6",
/* pixels */
"..                                              ..",
"..                                              ..",
"  %&&*==***&&%  $%%&***==***&&&%%$  %%&***==*&&%  ",
"  &&&&&&&&&&&&  $&&&&&&&&&&&&&&&&$  &&&&&&&&&&&&  ",
"  &&&&&&&&&&&&  $&&&&&&&&&&&&&&&&$  &&&&&&&&&&&&  ",
"  &&&&&&&&&&&&  $&&&&&&&&&&&&&&&&$  &&&&&&&&&&&&  ",
"  &&&&&&&&&&&&  $%%&&&&&&&&&&&&%%$  &&&&&&&&&&&&  ",
"  &&&&&&&&&&&&  $%%&&&&&&&&&&&&%%$  &&&&&&&&&&&&  ",
"  %&&&&&&&&&&%  $$$%&&&&&&&&&&%$$$  %%&&&&&&&&&%  ",
"  $%%&&&&&&%%$  $$$$$$$$$$$$$$$$$$  $$%&&&&&&%%$  ",
"  $%%&&&&&&%%$  $$$$$$$$$$$$$$$$$$  $$%&&&&&&%%$  ",
"  $$$$$$$$$$$$  @$$$$$$$$$$$$$$$$@  $$$$$$$$$$$$  ",
"  $$$$$$$$$$$$  @$$$$$$$$$$$$$$$$@  $$$$$$$$$$$$  ",
"  @$$$$$$$$$$@                      @@$$$$$$$$$@  ",
"                                                  ",
"                                                  ",
"  $$$$$$$$$@@    XXoOOoXX  XooOooX    @$$$$$$$$#  ",
"  %&&&%%$$$$$    ooOOOOoo  oOOOOOo    $$$$%%&&&%  ",
"  %&&&%%$$$$$    ooOOOOoo  oOOOOOo    $$$$%%&&&%  ",
"  &&&&&&%$$$$                         $$$%&&&&&&  ",
"  &&&&&&%$$$$      XOO+####+OOX       $$$%&&&&&&  ",
"  &&&&&&%$$$$      XOO+####+OOX       $$$%&&&&&&  ",
"  =&&&&&&$$$$      OOO######OOO       $$$&&&&&&=  ",
"  *&&&&&&$$$$      XOO+####+OOX       $$$&&&&&&*  ",
"  *&&&&&&$$$$      XOO+####+OOX       $$$&&&&&&*  ",
"  &&&&&&&$$$$                         $$$&&&&&&&  ",
"  &&&&&&&$$$$                         $$$&&&&&&&  ",
"  *&&&&&&$$$$   XOOOOO+OO  +OOOOOX    $$$&&&&&&*  ",
"  &&&&&&%$$$$   OOOOOO###  #OOOOOO    $$$%&&&&&&  ",
"  &&&&&&%$$$$   OOOOOO###  #OOOOOO    $$$%&&&&&&  ",
"  &&&&&&%$$$$   XOOOOO+OO  +OOOOOX    $$$%&&&&&&  ",
"  %&&&%%$$$$$                         $$$$%%&&&%  ",
"  %&&&%%$$$$$                         $$$$%%&&&%  ",
"  $$$$$$$$$@@      XOOOOOOOOOOX       @$$$$$$$$#  ",
"                                                  ",
"                                                  ",
"  @$$$$$$$$$$@                      @@$$$$$$$$$@  ",
"  @$$$$$$$$$$@                      @@$$$$$$$$$@  ",
"  $$$$$$$$$$$$  @$$$$$$$$$$$$$$$$@  $$$$$$$$$$$$  ",
"  $%%&&&&&&%%$  $$$$$$$$$$$$$$$$$$  $$%&&&&&&%%$  ",
"  $%%&&&&&&%%$  $$$$$$$$$$$$$$$$$$  $$%&&&&&&%%$  ",
"  %&&&&&&&&&&%  $$$%&&&&&&&&&&%$$$  %%&&&&&&&&&%  ",
"  &&&&&&&&&&&&  $%%&&&&&&&&&&&&%%$  &&&&&&&&&&&&  ",
"  &&&&&&&&&&&&  $%%&&&&&&&&&&&&%%$  &&&&&&&&&&&&  ",
"  &&&&&&&&&&&&  $&&&&&&&&&&&&&&&&$  &&&&&&&&&&&&  ",
"  &&&&&&&&&&&&  $&&&&&&&&&&&&&&&&$  &&&&&&&&&&&&  ",
"  &&&&&&&&&&&&  $&&&&&&&&&&&&&&&&$  &&&&&&&&&&&&  ",
"  %&&*==***&&%  $%%&**&**==***&%%$  %%&***==*&&%  ",
"..                                              ..",
"..                                              .."
};
