/* XPM */
static char *result[] = {
/* columns rows colors chars-per-pixel */
"50 50 5 1",
"  c None",
"a c #180e0e",
"b c #ffffff",
"c c #b3b1b3",
"d c #5a595a",
"                   aaaaaaaaaaaa                   ",
"                   aaaaaaaaaaaa                   ",
"                   aaaaaaaaaaaa                   ",
"                aaabbbbbbbbbbbbaaa                ",
"                aaabbbbbbbbbbbbaaa                ",
"                aaabbbbbbbbbbbbaaa                ",
"            aaaabbbbbbcccbbbcccdddaaa             ",
"            aaaabbbbbbcccbbbcccdddaaa             ",
"            aaaabbbbbbcccbbbcccdddaaa             ",
"            aaaabbbcccbbbccccccdddaaa             ",
"            aaaabbbcccbbbccccccdddaaa             ",
"            aaaabbbcccbbbccccccdddaaa             ",
"         aaabbbbcccbbbbbbbbbccccccdddaaaa         ",
"         aaabbbbcccbbbbbbbbbccccccdddaaaa         ",
"         aaabbbbcccbbbbbbbbbccccccdddaaaa         ",
"         aaabbbbcccbbbbbbbbbccccccdddaaaa         ",
"         aaabbbbbbbcccbbbdddccccccdddaaaa         ",
"         aaabbbbbbbcccbbbdddccccccdddaaaa         ",
"         aaabbbbbbbcccbbbdddccccccdddaaaa         ",
"         aaabbbbcccbbbbbbdddccccccdddaaaa         ",
"         aaabbbbcccbbbbbbdddccccccdddaaaa         ",
"         aaabbbbcccbbbbbbdddccccccdddaaaa         ",
"         aaabbbbccccccbbbdddccccccdddaaaa         ",
"         aaabbbbccccccbbbdddccccccdddaaaa         ",
"         aaabbbbccccccbbbdddccccccdddaaaa         ",
"         aaabbbbccccccbbbdddccccccdddaaaa         ",
"         aaabbbbccccccbbbdddccccccdddaaaa         ",
"         aaabbbbccccccbbbdddccccccdddaaaa         ",
"         aaabbbbccccccbbbdddccccccdddaaaa         ",
"         aaabbbbccccccbbbdddccccccdddaaaa         ",
"         aaabbbbccccccbbbdddccccccdddaaaa         ",
"         aaabbbbccccccbbbdddccccccdddaaaa         ",
"         aaabbbbccccccbbbdddccccccdddaaaa         ",
"         aaabbbbccccccbbbdddccccccdddaaaa         ",
"         aaabbbbccccccddddddccccccdddaaaa         ",
"         aaabbbbccccccddddddccccccdddaaaa         ",
"         aaabbbbccccccddddddccccccdddaaaa         ",
"         aaabbbbccccccccccccccccccdddaaaa         ",
"         aaabbbbccccccccccccccccccdddaaaa         ",
"         aaabbbbccccccccccccccccccdddaaaa         ",
"         aaabbbbccccccccccccccccccdddaaaa         ",
"            aaaabbbccccccccccccdddaaa             ",
"            aaaabbbccccccccccccdddaaa             ",
"            aaaabbbccccccccccccdddaaa             ",
"                aaaddddddddddddaaa                ",
"                aaaddddddddddddaaa                ",
"                aaaddddddddddddaaa                ",
"                   aaaaaaaaaaaa                   ",
"                   aaaaaaaaaaaa                   ",
"                   aaaaaaaaaaaa                   "
};