/* XPM */
static char *result[] = {
/* columns rows colors chars-per-pixel */
"50 50 5 1",
"  c None",
"a c #180e0e",
"b c #ffffff",
"c c #5a595a",
"d c #b3b1b3",
"                      aaaaaa                      ",
"                      aaaaaa                      ",
"                      aaaaaa                      ",
"                   aaabbbbbbaaa                   ",
"                   aaabbbbbbaaa                   ",
"                   aaabbbbbbaaa                   ",
"                   aaabbbcccaaa                   ",
"                   aaabbbcccaaa                   ",
"                   aaabbbcccaaa                   ",
"                   aaabbbcccaaa                   ",
"                   aaabbbcccaaa                   ",
"                   aaabbbcccaaa                   ",
"                aaabbbddddddcccaaa                ",
"                aaabbbddddddcccaaa                ",
"                aaabbbddddddcccaaa                ",
"                aaabbbddddddcccaaa                ",
"                aaabbbdddccccccaaa                ",
"                aaabbbdddccccccaaa                ",
"                aaabbbdddccccccaaa                ",
"                aaabbbdddccccccaaa                ",
"                aaabbbdddccccccaaa                ",
"                aaabbbdddccccccaaa                ",
"                aaabbbdddccccccaaa                ",
"                aaabbbdddccccccaaa                ",
"                aaabbbdddccccccaaa                ",
"                aaabbbdddccccccaaa                ",
"                aaabbbdddccccccaaa                ",
"                aaabbbdddccccccaaa                ",
"                aaabbbdddccccccaaa                ",
"                aaabbbdddccccccaaa                ",
"                aaabbbdddccccccaaa                ",
"                aaabbbdddccccccaaa                ",
"                aaabbbdddccccccaaa                ",
"                aaabbbdddccccccaaa                ",
"                aaabbbcccccccccaaa                ",
"                aaabbbcccccccccaaa                ",
"                aaabbbcccccccccaaa                ",
"                   aaadddcccaaa                   ",
"                   aaadddcccaaa                   ",
"                   aaadddcccaaa                   ",
"                   aaadddcccaaa                   ",
"                   aaadddcccaaa                   ",
"                   aaadddcccaaa                   ",
"                   aaadddcccaaa                   ",
"                   aaaccccccaaa                   ",
"                   aaaccccccaaa                   ",
"                   aaaccccccaaa                   ",
"                      aaaaaa                      ",
"                      aaaaaa                      ",
"                      aaaaaa                      "
};