/* XPM */
static char *result[] = {
/* columns rows colors chars-per-pixel */
"50 50 5 1",
"  c None",
"a c #180e0e",
"b c #ffffff",
"c c #b3b1b3",
"d c #5a595a",
"                   aaaaaaaaaaaa                   ",
"                   aaaaaaaaaaaa                   ",
"                   aaaaaaaaaaaa                   ",
"                aaabbbbbbbbbbbbaaa                ",
"                aaabbbbbbbbbbbbaaa                ",
"                aaabbbbbbbbbbbbaaa                ",
"            aaaabbbccccccccccccdddaaa             ",
"            aaaabbbccccccccccccdddaaa             ",
"            aaaabbbccccccccccccdddaaa             ",
"            aaaabbbccccccccccccdddaaa             ",
"            aaaabbbccccccccccccdddaaa             ",
"            aaaabbbccccccccccccdddaaa             ",
"         aaabbbbccccccbbbbbbccccccdddaaaa         ",
"         aaabbbbccccccbbbbbbccccccdddaaaa         ",
"         aaabbbbccccccbbbbbbccccccdddaaaa         ",
"         aaabbbbccccccbbbbbbccccccdddaaaa         ",
"         aaabbbbccccccbbbdddccccccdddaaaa         ",
"         aaabbbbccccccbbbdddccccccdddaaaa         ",
"         aaabbbbccccccbbbdddccccccdddaaaa         ",
"         aaabbbbcccbbbbbbdddccccccdddaaaa         ",
"         aaabbbbcccbbbbbbdddccccccdddaaaa         ",
"         aaabbbbcccbbbbbbdddccccccdddaaaa         ",
"         aaabbbbccccccbbbdddccccccdddaaaa         ",
"         aaabbbbccccccbbbdddccccccdddaaaa         ",
"         aaabbbbccccccbbbdddccccccdddaaaa         ",
"         aaabbbbccccccbbbdddccccccdddaaaa         ",
"         aaabbbbccccccbbbdddccccccdddaaaa         ",
"         aaabbbbccccccbbbdddccccccdddaaaa         ",
"         aaabbbbccccccbbbdddccccccbbbaaaa         ",
"         aaabbbbccccccbbbdddccccccbbbaaaa         ",
"         aaabbbbccccccbbbdddccccccbbbaaaa         ",
"         aaabbbbccccccbbbdddcccbbbbbbaaaa         ",
"         aaabbbbccccccbbbdddcccbbbbbbaaaa         ",
"         aaabbbbccccccbbbdddcccbbbbbbaaaa         ",
"         aaabbbbccccccddddddbbbbbbdddaaaa         ",
"         aaabbbbccccccddddddbbbbbbdddaaaa         ",
"         aaabbbbccccccddddddbbbbbbdddaaaa         ",
"         aaabbbbcccccccccbbbbbbcccbbbaaaa         ",
"         aaabbbbcccccccccbbbbbbcccbbbaaaa         ",
"         aaabbbbcccccccccbbbbbbcccbbbaaaa         ",
"         aaabbbbcccccccccbbbbbbcccbbbaaaa         ",
"            aaaabbbcccbbbbbbcccbbbaaa             ",
"            aaaabbbcccbbbbbbcccbbbaaa             ",
"            aaaabbbcccbbbbbbcccbbbaaa             ",
"                aaabbbbbbdddbbbaaa                ",
"                aaabbbbbbdddbbbaaa                ",
"                aaabbbbbbdddbbbaaa                ",
"                   aaaaaaaaaaaa                   ",
"                   aaaaaaaaaaaa                   ",
"                   aaaaaaaaaaaa                   "
};