/* XPM */
static char *result[] = {
/* columns rows colors chars-per-pixel */
"50 50 5 1",
"  c None",
"a c #180e0e",
"b c #ffffff",
"c c #b3b1b3",
"d c #5a595a",
"                   aaaaaaaaaaaa                   ",
"                   aaaaaaaaaaaa                   ",
"                   aaaaaaaaaaaa                   ",
"            aaaaaaabbbbbbbbbbbbaaa                ",
"            aaaaaaabbbbbbbbbbbbaaa                ",
"            aaaaaaabbbbbbbbbbbbaaa                ",
"         aaabbbbbbbcccccccccccccccaaa             ",
"         aaabbbbbbbcccccccccccccccaaa             ",
"         aaabbbbbbbcccccccccccccccaaa             ",
"      aaabbbccccccccccccccccccccccdddaaaa         ",
"      aaabbbccccccccccccccccccccccdddaaaa         ",
"      aaabbbccccccccccccccccccccccdddaaaa         ",
"   aaabbbcccccccccccccbbbcccccccccbbbbbbbaaa      ",
"   aaabbbcccccccccccccbbbcccccccccbbbbbbbaaa      ",
"   aaabbbcccccccccccccbbbcccccccccbbbbbbbaaa      ",
"   aaabbbcccccccccccccbbbcccccccccbbbbbbbaaa      ",
"   aaabbbccccccccccbbbcccdddcccbbbbbbddddaaa      ",
"   aaabbbccccccccccbbbcccdddcccbbbbbbddddaaa      ",
"   aaabbbccccccccccbbbcccdddcccbbbbbbddddaaa      ",
"   aaabbbcccccccbbbccccccdddbbbbbbcccbbbbaaa      ",
"   aaabbbcccccccbbbccccccdddbbbbbbcccbbbbaaa      ",
"   aaabbbcccccccbbbccccccdddbbbbbbcccbbbbaaa      ",
"   aaabbbccccccccccbbbcccbbbbbbcccbbbddddaaa      ",
"   aaabbbccccccccccbbbcccbbbbbbcccbbbddddaaa      ",
"   aaabbbccccccccccbbbcccbbbbbbcccbbbddddaaa      ",
"   aaabbbccccccccccbbbbbbbbbcccbbbcccddddaaa      ",
"   aaabbbccccccccccbbbbbbbbbcccbbbcccddddaaa      ",
"   aaabbbccccccccccbbbbbbbbbcccbbbcccddddaaa      ",
"   aaabbbccccccccccbbbbbbdddbbbccccccddddaaa      ",
"   aaabbbccccccccccbbbbbbdddbbbccccccddddaaa      ",
"   aaabbbccccccccccbbbbbbdddbbbccccccddddaaa      ",
"   aaabbbcccccccbbbbbbcccbbbcccccccccddddaaa      ",
"   aaabbbcccccccbbbbbbcccbbbcccccccccddddaaa      ",
"   aaabbbcccccccbbbbbbcccbbbcccccccccddddaaa      ",
"   aaabbbcccbbbbbbbcccbbbccccccccccccddddaaa      ",
"   aaabbbcccbbbbbbbcccbbbccccccccccccddddaaa      ",
"   aaabbbcccbbbbbbbcccbbbccccccccccccddddaaa      ",
"      aaabbbbbbbcccbbbccccccccccccdddaaaa         ",
"      aaabbbbbbbcccbbbccccccccccccdddaaaa         ",
"      aaabbbbbbbcccbbbccccccccccccdddaaaa         ",
"      aaabbbbbbbcccbbbccccccccccccdddaaaa         ",
"         aaabbbbbbbccccccccccccdddaaa             ",
"         aaabbbbbbbccccccccccccdddaaa             ",
"         aaabbbbbbbccccccccccccdddaaa             ",
"            aaaaaaaddddddddddddaaa                ",
"            aaaaaaaddddddddddddaaa                ",
"            aaaaaaaddddddddddddaaa                ",
"                   aaaaaaaaaaaa                   ",
"                   aaaaaaaaaaaa                   ",
"                   aaaaaaaaaaaa                   "
};