/* XPM */
static char *result[] = {
/* columns rows colors chars-per-pixel */
"50 50 5 1",
"  c None",
"a c #180e0e",
"b c #ffffff",
"c c #b3b1b3",
"d c #5a595a",
"                   aaaaaaaaaaaa                   ",
"                   aaaaaaaaaaaa                   ",
"                   aaaaaaaaaaaa                   ",
"            aaaaaaabbbbbbbbbbbbaaaaaa             ",
"            aaaaaaabbbbbbbbbbbbaaaaaa             ",
"            aaaaaaabbbbbbbbbbbbaaaaaa             ",
"         aaabbbbbbbccccccccccccbbbbbbaaaa         ",
"         aaabbbbbbbccccccccccccbbbbbbaaaa         ",
"         aaabbbbbbbccccccccccccbbbbbbaaaa         ",
"      aaabbbccccccccccccccccbbbbbbcccbbbbaaa      ",
"      aaabbbccccccccccccccccbbbbbbcccbbbbaaa      ",
"      aaabbbccccccccccccccccbbbbbbcccbbbbaaa      ",
"   aaabbbcccccccccccccbbbbbbbbbcccbbbccccdddaaa   ",
"   aaabbbcccccccccccccbbbbbbbbbcccbbbccccdddaaa   ",
"   aaabbbcccccccccccccbbbbbbbbbcccbbbccccdddaaa   ",
"   aaabbbcccccccccccccbbbbbbbbbcccbbbccccdddaaa   ",
"   aaabbbccccccccccbbbbbbbbbdddbbbcccccccdddaaa   ",
"   aaabbbccccccccccbbbbbbbbbdddbbbcccccccdddaaa   ",
"   aaabbbccccccccccbbbbbbbbbdddbbbcccccccdddaaa   ",
"   aaabbbcccccccbbbbbbbbbcccbbbccccccccccdddaaa   ",
"   aaabbbcccccccbbbbbbbbbcccbbbccccccccccdddaaa   ",
"   aaabbbcccccccbbbbbbbbbcccbbbccccccccccdddaaa   ",
"   aaabbbcccccccbbbbbbcccbbbdddccccccccccdddaaa   ",
"   aaabbbcccccccbbbbbbcccbbbdddccccccccccdddaaa   ",
"   aaabbbcccccccbbbbbbcccbbbdddccccccccccdddaaa   ",
"   aaabbbcccbbbbbbbbbbbbbcccdddccccccccccdddaaa   ",
"   aaabbbcccbbbbbbbbbbbbbcccdddccccccccccdddaaa   ",
"   aaabbbcccbbbbbbbbbbbbbcccdddccccccccccdddaaa   ",
"   aaabbbbbbbbbbcccbbbccccccdddccccccccccdddaaa   ",
"   aaabbbbbbbbbbcccbbbccccccdddccccccccccdddaaa   ",
"   aaabbbbbbbbbbcccbbbccccccdddccccccccccdddaaa   ",
"   aaabbbbbbccccbbbbbbccccccdddccccccccccdddaaa   ",
"   aaabbbbbbccccbbbbbbccccccdddccccccccccdddaaa   ",
"   aaabbbbbbccccbbbbbbccccccdddccccccccccdddaaa   ",
"   aaabbbcccbbbbccccccddddddcccccccccccccdddaaa   ",
"   aaabbbcccbbbbccccccddddddcccccccccccccdddaaa   ",
"   aaabbbcccbbbbccccccddddddcccccccccccccdddaaa   ",
"      aaabbbcccccccccccccccccccccccccddddaaa      ",
"      aaabbbcccccccccccccccccccccccccddddaaa      ",
"      aaabbbcccccccccccccccccccccccccddddaaa      ",
"      aaabbbcccccccccccccccccccccccccddddaaa      ",
"         aaabbbbbbbccccccccccccddddddaaaa         ",
"         aaabbbbbbbccccccccccccddddddaaaa         ",
"         aaabbbbbbbccccccccccccddddddaaaa         ",
"            aaaaaaaddddddddddddaaaaaa             ",
"            aaaaaaaddddddddddddaaaaaa             ",
"            aaaaaaaddddddddddddaaaaaa             ",
"                   aaaaaaaaaaaa                   ",
"                   aaaaaaaaaaaa                   ",
"                   aaaaaaaaaaaa                   "
};