/* XPM */
static char *result[] = {
/* columns rows colors chars-per-pixel */
"50 50 9 1",
"  c None",
"a c #33323d",
"b c #cb6a61",
"c c #de9970",
"d c #369571",
"e c #4fbd65",
"f c #ffffff",
"g c #216e70",
"h c #a6485b",
"                aaaaaaaaaaaa                      ",
"                aaaaaaaaaaaa                      ",
"                aaaaaaaaaaaa                      ",
"             aaabbbccccccaaa                      ",
"             aaabbbccccccaaa                      ",
"             aaabbbccccccaaa                      ",
"         aaaaaaadddaaaddddddddd                   ",
"         aaaaaaadddaaaddddddddd                   ",
"         aaaaaaadddaaaddddddddd                   ",
"         aaaaeeefffeeeffffffddd                   ",
"         aaaaeeefffeeeffffffddd                   ",
"         aaaaeeefffeeeffffffddd                   ",
"         aaaaeeefffeeeffffffddd                   ",
"             aaadddddddddaaa                      ",
"             aaadddddddddaaa                      ",
"             aaadddddddddaaa                      ",
"             aaaeeeeeeeeeddd                      ",
"             aaaeeeeeeeeeddd                      ",
"             aaaeeeeeeeeeddd                      ",
"      aaaaaaaeeeeeeeeeeeefffdddddd                ",
"      aaaaaaaeeeeeeeeeeeefffdddddd                ",
"      aaaaaaaeeeeeeeeeeeefffdddddd                ",
"   aaadddeeeeeeeeeeeeeeeeeeeffffffdddd            ",
"   aaadddeeeeeeeeeeeeeeeeeeeffffffdddd            ",
"   aaadddeeeeeeeeeeeeeeeeeeeffffffdddd            ",
"aaagggddddddddddddddddddddddeeeeeeeeeeaaa         ",
"aaagggddddddddddddddddddddddeeeeeeeeeeaaa         ",
"aaagggddddddddddddddddddddddeeeeeeeeeeaaa         ",
"aaabbbccccccccccaaaaaaddddddddddddddddaaa         ",
"aaabbbccccccccccaaaaaaddddddddddddddddaaa         ",
"aaabbbccccccccccaaaaaaddddddddddddddddaaa         ",
"aaahhhbbbbbbbcccaaabbbaaadddddddddddddaaa         ",
"aaahhhbbbbbbbcccaaabbbaaadddddddddddddaaa         ",
"aaahhhbbbbbbbcccaaabbbaaadddddddddddddaaa         ",
"aaabbbccccccccccaaaaaaaaadddddddddddddaaa         ",
"aaabbbccccccccccaaaaaaaaadddddddddddddaaa         ",
"aaabbbccccccccccaaaaaaaaadddddddddddddaaa         ",
"aaabbbccccccccccaaaaaaaaadddddddddddddaaa         ",
"aaahhhbbbcccccccbbbbbbaaadddddddddddddaaa         ",
"aaahhhbbbcccccccbbbbbbaaadddddddddddddaaa         ",
"aaahhhbbbcccccccbbbbbbaaadddddddddddddaaa         ",
"aaabbbccccccccccccccccaaadddddddddddddaaa         ",
"aaabbbccccccccccccccccaaadddddddddddddaaa         ",
"aaabbbccccccccccccccccaaadddddddddddddaaa         ",
"aaaaaaaaaaaaaaaaaaaaaaaaadddddddddddddaaa         ",
"aaaaaaaaaaaaaaaaaaaaaaaaadddddddddddddaaa         ",
"aaaaaaaaaaaaaaaaaaaaaaaaadddddddddddddaaa         ",
"aaagggggggggggggggggggggggggggggggggggaaa         ",
"aaagggggggggggggggggggggggggggggggggggaaa         ",
"aaagggggggggggggggggggggggggggggggggggaaa         "
};