/* XPM */
static char *result[] = {
/* columns rows colors chars-per-pixel */
"50 60 14 1",
"  c None",
"a c #6e5967",
"b c #fbcaae",
"c c #eda799",
"d c #faebcf",
"e c #e28989",
"f c #d2727e",
"g c #926475",
"h c #ad707b",
"i c #5d7889",
"j c #b98080",
"k c #c39490",
"l c #728896",
"m c #86a0a8",
"          aaaaaaaaaaaaaaaaaaaaaaaaaaaaaa          ",
"        aabcacbbbdbbddbcacbbbdbbdddbcacbaa        ",
"     aaacbbbabbbbbbbbbbbabbbbbbbbbbbbabbbcaaa     ",
"    accddbbbabbbbbbbbbbbabbbbbbbbbbbbabbbddcca    ",
"   acddbbbbcacbbbbbbbbbcacbbbbbbbbbbcacbbbbddca   ",
"  acdbbbbceeaeeeeeeeeeeeaeeeeeeeeeeeeaeecbbbbdca  ",
"  abbbbbceefaaaaaaaaaaaaaaaaaaaaaaaaaafeecbbbbba  ",
"  abbbbbceefaaaaaaaaaaaaaaaaaaaaaaaaaafeecbbbbba  ",
" acbbbbceeaaaghhhhhhhhgaaiaaghhhhhhhgaaaeecbbbbca ",
" abbbbbeeaaaghhhhhhhhhhaaiaahhhhhhhhhgaaaeebbbbba ",
"acbbbcceaaaaaaaaaaaaaaaaaiaaaaaaaaaaaaaaaaeccbbbca",
"abbbbeeeaaghhhhhhhhhhhgaaiaaaaaaaaaaaaaaaaeeebbbba",
"abbbbeeaaghhjkkkkkkkkjhaalaahjkkkkkkkkjhgaaeebbbba",
"acbbceeaahhhkkkkkkkkkkhaalaahkkkkkkkkkkhhaaeecbbca",
"aaaaaaaaaaaaaaaaaaaaaaaaaiaaaaaaaaaaaaaaaaaaaaaaaa",
"acbbceeaaaahkkkkkkkkkkkhalahkkkkkkkkkkhaaaaeecbbca",
"abbbbeeailiakkkkkkkkkkkkaiakkkkkkkkkkkailiaeebbbba",
"adbbbeealmlakkkkkkkkkkkkalakkkkkkkkkkkalmlaeebbbda",
"adbbbeeaaaahkkkkkkkkkkkkalakkkkkkkkkkkhaaaaeebbbda",
"abbbbeeahkkkkkkkkkkkkkkhamahkkkkkkkkkkkkkhaeebbbba",
"adbbbeeaaaaaaaaaaaaaaaaaamaaaaaaaaaaaaaaaaaeebbbda",
"abbbbeeaaaaaaaaaaaaaaaaaamahkkkkkkkkkkkkkhaeebbbba",
"abbbbeeaaaaaaaaaaaaaaaaaamahkkkkkkkkkkkkkhaeebbbba",
"abbbbeeaghhhhhhhhhhhhhhgalakkkkkkkkkkkkkkkaeebbbba",
"abbbbeeahhhhhhhhhhhhhhhhamakkkkkkkkkkkkkkkaeebbbba",
"acbbceeaghhhhhhhhhhhhhhgalahkkkkkkkkkkkkkhaeecbbca",
"aaaaaaaaaaaaaaaaaaaaaaaaalaaaaaaaaaaaaaaaaaaaaaaaa",
"acbbceeahkkkkkkkkkkkkkkhaiahkkkkkkkkkkkkkhaeecbbca",
"abbbbeeakkkkkkkkkkkkkkkkaiakkkkkkkkkkkkkkkaeebbbba",
"adbbbeeakkkkkkkkkkkkkkhaaaaahkkkkkkkkkkkkkaeebbbda",
"adbbbeeahkkkkkkkkkkkkjammammajkkkkkkkkkkkhaeebbbda",
"abbbbeeaaaaaaaaaaaaaaaalmalmaaaaaaaaaaaaaaaeebbbba",
"adbbbeeaaaaaaaaaaaaaaaalmalmahkkkkkkkkkkkhaeebbbda",
"abbbbeeaaghhhhhhhhhhhgalmalmakkkkkkkkkkkkkaeebbbba",
"abbbbeeaahhhhhhhhhhhhhalmalmakkkkkkkkkkkkkaeebbbba",
"abbbbeeaaghhhhhhhhhhhgalmalmahkkkkkkkkkkkhaeebbbba",
"acbbceeaaaaaaaaaaaaaaaalmalmaaaaaaaaaaaaaaaeecbbca",
"acbbceeaaaaaaaaaaaaaaaalmalmaaaaaaaaaaaaaaaeecbbca",
"aaaaaaaahkkkkkkkkkkkkhalmalmaaaaaaaaaaaaaaaaaaaaaa",
"acbbceeakkkkkkkkkkkkkkalmalmaghhhhhhhhhhgaaeecbbca",
"abbbbeeakkkkkkkkkkkkkkalmalmahhhhhhhhhhhhaaeebbbba",
"adbbbeeahkkkkkkkkkkkkhalmalmaghhhhhhhhhhgaaeebbbda",
"adbbbeeaaaaaaaaaaaaaaaalmalmaaaaaaaaaaaaaaaeebbbda",
"abbbbeeahkkkkkkkkkkkkjaimaimajkkkkkkkkkkkkaeebbbba",
"adbbbeeaaaahkkkkkkkkkkhaaiaahkkkkkkkkkhaaaaeebbbda",
"abbbbeealmlakkkkkkkkkkkjaiajkkkkkkkkkkalmlaeebbbba",
"abbbbeeailiakkkkkkkkkkkkalakkkkkkkkkkkailiaeebbbba",
"abbbbeeaaaahkkkkkkkkkkkhalakkkkkkkkkkkhaaaaeebbbba",
"acbbceeaaaaaaaaaaaaaaaaaalaaaaaaaaaaaaaaaaaeecbbca",
"aaaaaaaaghhhhhhhhhhhhhgaaiahkkkkkkkkkkkkkhaaaaaaaa",
"acbbceeahhhhhhhhhhhhhhhaalakkkkkkkkkkkkkkkaeecbbca",
"abbbbeeaghhhhhhhhhhhhhgaaiakkkkkkkkkkkkkkkaeebbbba",
"abbbbeeaghhhhhhhhhhhhhgaaiakkkkkkkkkkkkkkkaeebbbba",
"adbbbeeaaaaaaaaaaaaaaaaaalahkkkkkkkkkkkkkhaeebbbda",
"adbbbeeaaaaaaaaaaaaaaaaaaiaaaaaaaaaaaaaaaaaeebbbda",
"abbbbeeahkkkkkkkkkkkkkkhaiaaaaaaaaaaaaaaaaaeebbbba",
"acbbceeakkkkkkkkkkkkkkkkaiaahhhhhhhhhhhhhaaeecbbca",
"aeeeeffahkkkkkkkkkkkkkkhaiaaghhhhhhhhhhhgaaffeeeea",
"aaaaaaaaaaaaaaaaaaaaaaaaaaaaaaaaaaaaaaaaaaaaaaaaaa",
"aaaaaaaaaaaaaaaaaaaaaaaaaaaaaaaaaaaaaaaaaaaaaaaaaa"
};